# xmcd
#
# Track frame offsets:
#	150
#	19314
#	34397
#	54088
#	69187
#	85156
#	104918
#	124735
#	142672
#	158744
#	176592
#	196680
#	219181
#	229444
#	249547
#	270274
#	295009
#	312244
#
# Disc length: 4378 seconds
#
# Revision: 0
# Processed by: cddbd v1.5.1PL0 Copyright (c) Steve Scherf et al.
# Submitted via: EasyCDDAExtractor 7.1.3.1
#
DISCID=f2111812
DTITLE=Various Artist - LAY IT DOWN
DYEAR=2000
DGENRE=Country
TTITLE0=COWBOY  JUNKIES - Track01
TTITLE1=COWBOY  JUNKIES - Track02
TTITLE2=COWBOY  JUNKIES - Track03
TTITLE3=COWBOY  JUNKIES - Track04
TTITLE4=COWBOY  JUNKIES - Track05
TTITLE5=COWBOY  JUNKIES - Track06
TTITLE6=COWBOY  JUNKIES - Track07
TTITLE7=COWBOY  JUNKIES - Track08
TTITLE8=COWBOY  JUNKIES - Track09
TTITLE9=COWBOY  JUNKIES - Track10
TTITLE10=COWBOY  JUNKIES - Track11
TTITLE11=COWBOY  JUNKIES - Track12
TTITLE12=COWBOY  JUNKIES - Track13
TTITLE13=COWBOY JUNKIES - Track03
TTITLE14=COWBOY JUNKIES - Track04
TTITLE15=COWBOY JUNKIES - Track07
TTITLE16=COWBOY JUNKIES - Track09
TTITLE17=COWBOY JUNKIES - Track10
EXTD=
EXTT0=
EXTT1=
EXTT2=
EXTT3=
EXTT4=
EXTT5=
EXTT6=
EXTT7=
EXTT8=
EXTT9=
EXTT10=
EXTT11=
EXTT12=
EXTT13=
EXTT14=
EXTT15=
EXTT16=
EXTT17=
PLAYORDER=
